# xmcd
#
# Track frame offsets:
#	150
#	20637
#	38514
#	57031
#	73498
#	94650
#	114498
#	135358
#	150168
#	168601
#
# Disc length: 2441 seconds
#
# Revision: 1
# Processed by: cddbd v1.5.2PL0 Copyright (c) Steve Scherf et al.
# Submitted via: audiograbber 1.83.01
#
DISCID=7909870a
DTITLE=Romi Mayes (featuring Jay Nowicki) - Lucky Tonight
DYEAR=2011
DGENRE=Blues/Country
TTITLE0=Easy On You
TTITLE1=Don't Mess With Me
TTITLE2=Heavy Heart
TTITLE3=Lucky Tonight
TTITLE4=Ball And Chain
TTITLE5=Make You Love Me
TTITLE6=After The Show
TTITLE7=Not My Baby
TTITLE8=Can't Get You Off (My Mind)
TTITLE9=I Will
EXTD=
EXTT0=
EXTT1=
EXTT2=
EXTT3=
EXTT4=
EXTT5=
EXTT6=
EXTT7=
EXTT8=
EXTT9=
PLAYORDER=
